<svg height="512" viewBox="0 0 60 60" width="512" xmlns="http://www.w3.org/2000/svg"><g id="Page-1" fill="none" fill-rule="evenodd"><g id="029---Dryer" fill-rule="nonzero"><g id="Color" transform="translate(1 1)"><path id="Shape" d="m58 14v40c0 2.209139-1.790861 4-4 4h-50c-2.209139 0-4-1.790861-4-4v-40z" fill="#00bcd4"/><path id="Shape" d="m55 14v40c0 2.209139-1.790861 4-4 4h3c2.209139 0 4-1.790861 4-4v-40z" fill="#00838f"/><path id="Shape" d="m24 0v14h-24v-10c0-2.209139 1.790861-4 4-4z" fill="#f5f5f5"/><path id="Rectangle-path" d="m21 0h3v14h-3z" fill="#cfd8dc"/><path id="Shape" d="m58 4v10h-34v-14h30c2.209139 0 4 1.790861 4 4z" fill="#607d8b"/><path id="Shape" d="m54 0h-3c2.209139 0 4 1.790861 4 4v10h3v-10c0-2.209139-1.790861-4-4-4z" fill="#37474f"/><circle id="Oval" cx="51" cy="7" fill="#00bcd4" r="3"/><circle id="Oval" cx="41" cy="7" fill="#00bcd4" r="3"/><circle id="Oval" cx="7" cy="7" fill="#7f8e94" r="3"/><circle id="Oval" cx="29" cy="36" fill="#009688" r="18"/><path id="Shape" d="m29 18c-.5010266.0014471-1.0016617.0281476-1.5.08 9.243166.8743713 16.3048304 8.6355698 16.3048304 17.92s-7.0616644 17.0456287-16.3048304 17.92c.4983383.0518524.9989734.0785529 1.5.08 9.9411254-.0000001 17.9999997-8.0588746 17.9999997-18s-8.0588743-17.9999999-17.9999997-18z" fill="#00695c"/><circle id="Oval" cx="29" cy="36" fill="#f5f5f5" r="14"/><path id="Shape" d="m29 22c-.5010337.0011903-1.0016819.0278915-1.5.08 7.1126167.7636474 12.5054767 6.7665061 12.5054767 13.92s-5.39286 13.1563526-12.5054767 13.92c.4983181.0521085.9989663.0788097 1.5.08 7.7319865 0 14-6.2680135 14-14s-6.2680135-14-14-14z" fill="#cfd8dc"/><path id="Shape" d="m4 21c-.55228475 0-1-.4477153-1-1v-2c0-.5522847.44771525-1 1-1s1 .4477153 1 1v2c0 .5522847-.44771525 1-1 1z" fill="#f5f5f5"/><path id="Shape" d="m4 46c-.55228475 0-1-.4477153-1-1v-21c0-.5522847.44771525-1 1-1s1 .4477153 1 1v21c0 .5522847-.44771525 1-1 1z" fill="#f5f5f5"/><g fill="#02a9f4"><path id="Shape" d="m29 45c-.3765582-.0011413-.7205498-.2137203-.89-.55-.2484034-.4890062-.056561-1.0868406.43-1.34 1.0182333-.6921357 1.577977-1.8844665 1.46-3.11.1157742-1.2251511-.4434682-2.4164138-1.46-3.11-1.6889226-1.0319659-2.6669332-2.9148288-2.54-4.89-.1294636-1.978213.8538224-3.8638085 2.55-4.89.4835272-.2013504 1.0404963.0045141 1.2768341.4719378s.0719586 1.0380149-.3768341 1.3080622c-1.0077083.7002537-1.5614569 1.887949-1.45 3.11-.1157742 1.2251511.4434682 2.4164138 1.46 3.11 1.6889226 1.0319659 2.6669332 2.9148288 2.54 4.89.1294636 1.978213-.8538224 3.8638085-2.55 4.89-.1383204.0740366-.2931229.1118772-.45.11z"/><path id="Shape" d="m35 45c-.3765582-.0011413-.7205498-.2137203-.89-.55-.2484034-.4890062-.056561-1.0868406.43-1.34 1.0182333-.6921357 1.577977-1.8844665 1.46-3.11.1157742-1.2251511-.4434682-2.4164138-1.46-3.11-1.6889226-1.0319659-2.6669332-2.9148288-2.54-4.89-.1294636-1.978213.8538224-3.8638085 2.55-4.89.3211808-.1932607.7234705-.1906728 1.0421383.0067041.3186678.1973768.5001928.5563928.4702434.9300368s-.2663431.6991617-.6123817.8432591c-1.0077083.7002537-1.5614569 1.887949-1.45 3.11-.1157742 1.2251511.4434682 2.4164138 1.46 3.11 1.6889226 1.0319659 2.6669332 2.9148288 2.54 4.89.1294636 1.978213-.8538224 3.8638085-2.55 4.89-.1383204.0740366-.2931229.1118772-.45.11z"/><path id="Shape" d="m23 45c-.3765582-.0011413-.7205498-.2137203-.89-.55-.2484034-.4890062-.056561-1.0868406.43-1.34 1.0182333-.6921357 1.577977-1.8844665 1.46-3.11.1157742-1.2251511-.4434682-2.4164138-1.46-3.11-1.6889226-1.0319659-2.6669332-2.9148288-2.54-4.89-.1294636-1.978213.8538224-3.8638085 2.55-4.89.4835272-.2013504 1.0404963.0045141 1.2768341.4719378s.0719586 1.0380149-.3768341 1.3080622c-1.0077083.7002537-1.5614569 1.887949-1.45 3.11-.1157742 1.2251511.4434682 2.4164138 1.46 3.11 1.6889226 1.0319659 2.6669332 2.9148288 2.54 4.89.1294636 1.978213-.8538224 3.8638085-2.55 4.89-.1383204.0740366-.2931229.1118772-.45.11z"/></g></g><g id="Outline" fill="#000"><path id="Shape" d="m55 0h-50c-2.76142375 0-5 2.23857625-5 5v50c0 2.7614237 2.23857625 5 5 5h50c2.7614237 0 5-2.2385763 5-5v-50c0-2.76142375-2.2385763-5-5-5zm3 5v9h-32v-12h29c1.6568542 0 3 1.34314575 3 3zm-53-3h19v12h-22v-9c0-1.65685425 1.34314575-3 3-3zm50 56h-50c-1.65685425 0-3-1.3431458-3-3v-39h56v39c0 1.6568542-1.3431458 3-3 3z"/><path id="Shape" d="m52 12c2.209139 0 4-1.790861 4-4s-1.790861-4-4-4-4 1.790861-4 4 1.790861 4 4 4zm0-6c1.1045695 0 2 .8954305 2 2s-.8954305 2-2 2-2-.8954305-2-2 .8954305-2 2-2z"/><path id="Shape" d="m42 12c2.209139 0 4-1.790861 4-4s-1.790861-4-4-4-4 1.790861-4 4 1.790861 4 4 4zm0-6c1.1045695 0 2 .8954305 2 2s-.8954305 2-2 2-2-.8954305-2-2 .8954305-2 2-2z"/><path id="Shape" d="m8 12c2.209139 0 4-1.790861 4-4s-1.790861-4-4-4-4 1.790861-4 4 1.790861 4 4 4zm0-6c1.1045695 0 2 .8954305 2 2s-.8954305 2-2 2-2-.8954305-2-2 .8954305-2 2-2z"/><circle id="Oval" cx="30" cy="8" r="1"/><circle id="Oval" cx="34" cy="8" r="1"/><circle id="Oval" cx="16" cy="8" r="1"/><circle id="Oval" cx="20" cy="8" r="1"/><path id="Shape" d="m30 18c-10.4934102 0-19 8.5065898-19 19s8.5065898 19 19 19 19-8.5065898 19-19-8.5065898-19-19-19zm0 36c-9.3888407 0-17-7.6111593-17-17s7.6111593-17 17-17 17 7.6111593 17 17c0 4.5086803-1.7910663 8.8326968-4.9791847 12.0208153-3.1881185 3.1881184-7.512135 4.9791847-12.0208153 4.9791847z"/><path id="Shape" d="m30 22c-8.2842712 0-15 6.7157288-15 15s6.7157288 15 15 15 15-6.7157288 15-15c0-3.9782473-1.5803526-7.793556-4.3933983-10.6066017s-6.6283544-4.3933983-10.6066017-4.3933983zm0 28c-7.1797017 0-13-5.8202983-13-13s5.8202983-13 13-13 13 5.8202983 13 13-5.8202983 13-13 13z"/><path id="Shape" d="m30.46 36.11c-1.0165318-.6935862-1.5757742-1.8848489-1.46-3.11-.1114569-1.222051.4422917-2.4097463 1.45-3.11.4487927-.2700473.6131719-.8406385.3768341-1.3080622s-.7933069-.6732882-1.2768341-.4719378c-1.6961776 1.0261915-2.6794636 2.911787-2.55 4.89-.1269332 1.9751712.8510774 3.8580341 2.54 4.89 1.0165318.6935862 1.5757742 1.8848489 1.46 3.11.117977 1.2255335-.4417667 2.4178643-1.46 3.11-.486561.2531594-.6784034.8509938-.43 1.34.1694502.3362797.5134418.5488587.89.55.1568771.0018772.3116796-.0359634.45-.11 1.6961776-1.0261915 2.6794636-2.911787 2.55-4.89.1269332-1.9751712-.8510774-3.8580341-2.54-4.89z"/><path id="Shape" d="m36.46 36.11c-1.0165318-.6935862-1.5757742-1.8848489-1.46-3.11-.1114569-1.222051.4422917-2.4097463 1.45-3.11.3460386-.1440974.5824323-.4696151.6123817-.8432591s-.1515756-.73266-.4702434-.9300368c-.3186678-.1973769-.7209575-.1999648-1.0421383-.0067041-1.6961776 1.0261915-2.6794636 2.911787-2.55 4.89-.1269332 1.9751712.8510774 3.8580341 2.54 4.89 1.0165318.6935862 1.5757742 1.8848489 1.46 3.11.117977 1.2255335-.4417667 2.4178643-1.46 3.11-.486561.2531594-.6784034.8509938-.43 1.34.1694502.3362797.5134418.5488587.89.55.1568771.0018772.3116796-.0359634.45-.11 1.6961776-1.0261915 2.6794636-2.911787 2.55-4.89.1269332-1.9751712-.8510774-3.8580341-2.54-4.89z"/><path id="Shape" d="m24.46 36.11c-1.0165318-.6935862-1.5757742-1.8848489-1.46-3.11-.1114569-1.222051.4422917-2.4097463 1.45-3.11.4487927-.2700473.6131719-.8406385.3768341-1.3080622s-.7933069-.6732882-1.2768341-.4719378c-1.6961776 1.0261915-2.6794636 2.911787-2.55 4.89-.1269332 1.9751712.8510774 3.8580341 2.54 4.89 1.0165318.6935862 1.5757742 1.8848489 1.46 3.11.117977 1.2255335-.4417667 2.4178643-1.46 3.11-.486561.2531594-.6784034.8509938-.43 1.34.1694502.3362797.5134418.5488587.89.55.1568771.0018772.3116796-.0359634.45-.11 1.6961776-1.0261915 2.6794636-2.911787 2.55-4.89.1269332-1.9751712-.8510774-3.8580341-2.54-4.89z"/></g></g></g></svg>