<svg id="Layer_1" height="512" viewBox="0 0 128 128" width="512" xmlns="http://www.w3.org/2000/svg" data-name="Layer 1"><path d="m93.875 69.868v-8.548a1.75 1.75 0 1 0 -3.5 0v8.548a5.273 5.273 0 1 0 3.5 0zm-1.75 6.726a1.774 1.774 0 1 1 1.775-1.774 1.775 1.775 0 0 1 -1.775 1.774z" fill="#ec8722"/><path d="m71.034 57.279-.053-.226h-13.962l-.054.229a39.149 39.149 0 0 1 -8.692 16.711 20.78 20.78 0 1 0 31.523.079 39.746 39.746 0 0 1 -8.762-16.793z" fill="#6f79e2"/><path d="m98.6 61.321h-69.2l2.6-9.253 9.2-32.768a6.163 6.163 0 0 1 5.938-4.5h33.724a6.163 6.163 0 0 1 5.938 4.5l9.2 32.768z" fill="#fc634a"/><g fill="#c4c9f3"><path d="m98.598 61.321h-69.196l2.597-9.253h64.002z"/><path d="m46.236 103.7h35.528a8.625 8.625 0 0 1 8.625 8.625v.883a0 0 0 0 1 0 0h-52.778a0 0 0 0 1 0 0v-.883a8.625 8.625 0 0 1 8.625-8.625z"/></g></svg>