<?xml version="1.0" encoding="iso-8859-1"?>
<!-- Generator: Adobe Illustrator 19.0.0, SVG Export Plug-In . SVG Version: 6.00 Build 0)  -->
<svg version="1.1" id="Capa_1" xmlns="http://www.w3.org/2000/svg" xmlns:xlink="http://www.w3.org/1999/xlink" x="0px" y="0px"
	 viewBox="0 0 512.001 512.001" style="enable-background:new 0 0 512.001 512.001;" xml:space="preserve">
<g>
	<g transform="translate(1 1)">
		<path style="fill:#607D8B;" d="M468.012,502.467H41.989c-9.514,0.088-17.299-7.552-17.389-17.067V24.6
			c0.09-9.514,7.874-17.155,17.389-17.067h426.023c9.514-0.088,17.299,7.552,17.389,17.067v460.8
			C485.311,494.915,477.526,502.555,468.012,502.467z"/>
		<path style="fill:#9E9E9E;" d="M443.378,502.467H41.023c-9.246-0.181-16.597-7.82-16.423-17.067V24.6
			c-0.174-9.246,7.176-16.885,16.423-17.067h402.355c9.246,0.181,16.597,7.82,16.423,17.067v460.8
			C459.975,494.647,452.624,502.286,443.378,502.467z"/>
		<path style="fill:#00695C;" d="M485.4,434.2v51.2c-0.099,9.518-7.89,17.156-17.408,17.067H42.008
			c-9.518,0.09-17.309-7.549-17.408-17.067v-51.2H485.4z"/>
		<path style="fill:#009688;" d="M459.803,434.2l-0.003,51.2c0.165,9.25-7.191,16.887-16.441,17.067H41.041
			c-9.25-0.18-16.606-7.817-16.441-17.067l-0.003-51.2H459.803z"/>
		<path style="fill:#607D8B;" d="M485.4,24.6v51.2H24.6V24.6c0.099-9.518,7.89-17.156,17.408-17.067h425.984
			C477.51,7.444,485.302,15.082,485.4,24.6z"/>
		<path style="fill:#9E9E9E;" d="M459.8,24.6l0.003,51.2H24.598L24.6,24.6c-0.166-9.25,7.191-16.887,16.441-17.067H443.36
			C452.609,7.714,459.966,15.35,459.8,24.6z"/>
		<path style="fill:#D84315;" d="M127,229.4h256c9.426,0,17.067,7.641,17.067,17.067V383c0,9.426-7.641,17.067-17.067,17.067H127
			c-9.426,0-17.067-7.641-17.067-17.067V246.467C109.934,237.041,117.575,229.4,127,229.4z"/>
		<path style="fill:#FF5722;" d="M126.232,229.4h231.936c9.001,0,16.299,7.297,16.299,16.299v138.069
			c0,9.001-7.297,16.299-16.299,16.299H126.232c-9.002,0-16.299-7.297-16.299-16.299V245.699
			C109.934,236.698,117.231,229.4,126.232,229.4z"/>
		<g>
			<path style="fill:#2C3E50;" d="M184.719,50.2H94.881c-6.464,0-12.374,3.652-15.265,9.434l-12.35,24.699h145.067l-12.35-24.699
				C197.093,53.853,191.184,50.2,184.719,50.2z"/>
			<path style="fill:#2C3E50;" d="M415.119,50.2h-89.838c-6.464,0-12.374,3.652-15.265,9.434l-12.35,24.699h145.067l-12.35-24.699
				C427.493,53.853,421.584,50.2,415.119,50.2z"/>
		</g>
		<rect x="24.6" y="75.8" style="fill:#00695C;" width="460.8" height="119.467"/>
		<rect x="24.6" y="75.8" style="fill:#009688;" width="435.2" height="119.467"/>
		<g>
			<circle style="fill:#00695C;" cx="84.334" cy="135.534" r="25.6"/>
			<circle style="fill:#00695C;" cx="169.667" cy="135.534" r="25.6"/>
			<circle style="fill:#00695C;" cx="255" cy="135.534" r="25.6"/>
			<circle style="fill:#00695C;" cx="340.334" cy="135.534" r="25.6"/>
			<circle style="fill:#00695C;" cx="425.667" cy="135.534" r="25.6"/>
		</g>
	</g>
	<g>
		<path d="M42.988,512h426.025c14.22,0.072,25.816-11.38,25.921-25.6V25.6C494.828,11.38,483.233-0.071,469.013,0H42.988
			c-14.22-0.072-25.816,11.38-25.921,25.6v460.8C17.172,500.62,28.768,512.072,42.988,512z M68.267,85.334h409.6v102.4H34.134
			v-102.4H68.267z M82.075,68.267l6.175-12.35c1.437-2.897,4.395-4.727,7.629-4.717h89.842c3.234-0.01,6.192,1.819,7.629,4.717
			l6.175,12.35H82.075z M312.475,68.267l6.175-12.35c1.437-2.897,4.395-4.727,7.629-4.717h89.842
			c3.234-0.01,6.192,1.819,7.629,4.717l6.175,12.35H312.475z M477.867,426.667H34.134V204.8h443.733V426.667z M469.013,494.934
			H42.988c-4.799,0.081-8.759-3.735-8.854-8.533v-42.667h443.733V486.4C477.771,491.199,473.811,495.015,469.013,494.934z
			 M42.988,17.067h426.025c4.799-0.081,8.759,3.735,8.854,8.533v42.667h-28.858l-9.992-19.983
			c-4.312-8.694-13.191-14.182-22.896-14.15H326.28c-9.705-0.032-18.584,5.456-22.896,14.15l-9.992,19.983h-74.783l-9.992-19.983
			c-4.312-8.694-13.191-14.182-22.896-14.15H95.88c-9.705-0.032-18.584,5.456-22.896,14.15l-9.992,19.983H34.134V25.6
			C34.229,20.802,38.189,16.986,42.988,17.067z"/>
		<path d="M85.334,170.667c18.851,0,34.133-15.282,34.133-34.133S104.185,102.4,85.334,102.4S51.2,117.682,51.2,136.534
			C51.222,155.376,66.491,170.645,85.334,170.667z M85.334,119.467c9.426,0,17.067,7.641,17.067,17.067
			c0,9.426-7.641,17.067-17.067,17.067s-17.067-7.641-17.067-17.067C68.276,127.112,75.912,119.476,85.334,119.467z"/>
		<path d="M170.667,170.667c18.851,0,34.133-15.282,34.133-34.133S189.518,102.4,170.667,102.4s-34.133,15.282-34.133,34.133
			C136.555,155.376,151.825,170.645,170.667,170.667z M170.667,119.467c9.426,0,17.067,7.641,17.067,17.067
			c0,9.426-7.641,17.067-17.067,17.067c-9.426,0-17.067-7.641-17.067-17.067C153.61,127.112,161.245,119.476,170.667,119.467z"/>
		<path d="M256,170.667c18.851,0,34.133-15.282,34.133-34.133S274.852,102.4,256,102.4s-34.133,15.282-34.133,34.133
			C221.889,155.376,237.158,170.645,256,170.667z M256,119.467c9.426,0,17.067,7.641,17.067,17.067
			c0,9.426-7.641,17.067-17.067,17.067c-9.426,0-17.067-7.641-17.067-17.067C238.943,127.112,246.579,119.476,256,119.467z"/>
		<path d="M341.334,170.667c18.851,0,34.133-15.282,34.133-34.133S360.185,102.4,341.334,102.4
			c-18.851,0-34.133,15.282-34.133,34.133C307.222,155.376,322.491,170.645,341.334,170.667z M341.334,119.467
			c9.426,0,17.067,7.641,17.067,17.067c0,9.426-7.641,17.067-17.067,17.067c-9.426,0-17.067-7.641-17.067-17.067
			C324.276,127.112,331.912,119.476,341.334,119.467z"/>
		<path d="M426.667,170.667c18.851,0,34.133-15.282,34.133-34.133S445.518,102.4,426.667,102.4
			c-18.851,0-34.133,15.282-34.133,34.133C392.555,155.376,407.825,170.645,426.667,170.667z M426.667,119.467
			c9.426,0,17.067,7.641,17.067,17.067c0,9.426-7.641,17.067-17.067,17.067s-17.067-7.641-17.067-17.067
			C409.61,127.112,417.245,119.476,426.667,119.467z"/>
		<path d="M128,409.6h256c14.132-0.015,25.585-11.468,25.6-25.6V247.467c-0.015-14.132-11.468-25.585-25.6-25.6H128
			c-14.132,0.015-25.585,11.468-25.6,25.6V384C102.416,398.132,113.868,409.585,128,409.6z M119.467,247.467
			c0.006-4.71,3.823-8.527,8.533-8.533h256c4.71,0.006,8.527,3.823,8.533,8.533V384c-0.006,4.71-3.823,8.527-8.533,8.533H128
			c-4.71-0.006-8.527-3.823-8.533-8.533V247.467z"/>
		<path d="M145.067,298.667h8.533c4.713,0,8.533-3.821,8.533-8.533c0-4.713-3.821-8.533-8.533-8.533h-8.533
			c-4.713,0-8.533,3.821-8.533,8.533C136.534,294.846,140.354,298.667,145.067,298.667z"/>
		<path d="M187.734,298.667h8.533c4.713,0,8.533-3.821,8.533-8.533c0-4.713-3.821-8.533-8.533-8.533h-8.533
			c-4.713,0-8.533,3.821-8.533,8.533C179.2,294.846,183.021,298.667,187.734,298.667z"/>
		<path d="M230.4,298.667h8.533c4.713,0,8.533-3.821,8.533-8.533c0-4.713-3.82-8.533-8.533-8.533H230.4
			c-4.713,0-8.533,3.821-8.533,8.533C221.867,294.846,225.688,298.667,230.4,298.667z"/>
		<path d="M273.067,298.667h8.533c4.713,0,8.533-3.821,8.533-8.533c0-4.713-3.821-8.533-8.533-8.533h-8.533
			c-4.713,0-8.533,3.821-8.533,8.533C264.534,294.846,268.354,298.667,273.067,298.667z"/>
		<path d="M315.734,298.667h8.533c4.713,0,8.533-3.821,8.533-8.533c0-4.713-3.82-8.533-8.533-8.533h-8.533
			c-4.713,0-8.533,3.821-8.533,8.533C307.2,294.846,311.021,298.667,315.734,298.667z"/>
		<path d="M358.4,298.667h8.533c4.713,0,8.533-3.821,8.533-8.533c0-4.713-3.82-8.533-8.533-8.533H358.4
			c-4.713,0-8.533,3.821-8.533,8.533C349.867,294.846,353.688,298.667,358.4,298.667z"/>
		<path d="M145.067,358.4h8.533c4.713,0,8.533-3.821,8.533-8.533c0-4.713-3.821-8.533-8.533-8.533h-8.533
			c-4.713,0-8.533,3.821-8.533,8.533C136.534,354.58,140.354,358.4,145.067,358.4z"/>
		<path d="M187.734,358.4h8.533c4.713,0,8.533-3.821,8.533-8.533c0-4.713-3.821-8.533-8.533-8.533h-8.533
			c-4.713,0-8.533,3.821-8.533,8.533C179.2,354.58,183.021,358.4,187.734,358.4z"/>
		<path d="M230.4,358.4h8.533c4.713,0,8.533-3.821,8.533-8.533c0-4.713-3.82-8.533-8.533-8.533H230.4
			c-4.713,0-8.533,3.821-8.533,8.533C221.867,354.58,225.688,358.4,230.4,358.4z"/>
		<path d="M273.067,358.4h8.533c4.713,0,8.533-3.821,8.533-8.533c0-4.713-3.821-8.533-8.533-8.533h-8.533
			c-4.713,0-8.533,3.821-8.533,8.533C264.534,354.58,268.354,358.4,273.067,358.4z"/>
		<path d="M315.734,358.4h8.533c4.713,0,8.533-3.821,8.533-8.533c0-4.713-3.82-8.533-8.533-8.533h-8.533
			c-4.713,0-8.533,3.821-8.533,8.533C307.2,354.58,311.021,358.4,315.734,358.4z"/>
		<path d="M358.4,358.4h8.533c4.713,0,8.533-3.821,8.533-8.533c0-4.713-3.82-8.533-8.533-8.533H358.4
			c-4.713,0-8.533,3.821-8.533,8.533C349.867,354.58,353.688,358.4,358.4,358.4z"/>
	</g>
</g>
<g>
</g>
<g>
</g>
<g>
</g>
<g>
</g>
<g>
</g>
<g>
</g>
<g>
</g>
<g>
</g>
<g>
</g>
<g>
</g>
<g>
</g>
<g>
</g>
<g>
</g>
<g>
</g>
<g>
</g>
</svg>
