<?xml version="1.0" encoding="iso-8859-1"?>
<!-- Generator: Adobe Illustrator 19.0.0, SVG Export Plug-In . SVG Version: 6.00 Build 0)  -->
<svg version="1.1" id="Capa_1" xmlns="http://www.w3.org/2000/svg" xmlns:xlink="http://www.w3.org/1999/xlink" x="0px" y="0px"
	 viewBox="0 0 512 512" style="enable-background:new 0 0 512 512;" xml:space="preserve">
<g>
	<g>
		<path d="M512,256.002c0-11.322-9.211-20.534-20.534-20.534h-2.401l6.72-6.72c3.879-3.878,6.015-9.035,6.016-14.52
			c0.001-11.206-9.342-20.535-20.535-20.535c-5.485,0-10.641,2.136-14.52,6.015l-22.866,22.865c1.154-2.592,1.761-5.422,1.761-8.345
			c0.001-11.2-9.352-20.535-20.535-20.535c-5.485,0-10.641,2.136-14.519,6.015l-35.76,35.76h-69.254l48.97-48.97h50.573
			c11.323,0,20.534-9.211,20.534-20.534c0-8.736-5.483-16.215-13.188-19.176h32.365c11.322,0,20.534-9.211,20.534-20.534
			s-9.211-20.534-20.534-20.534h-9.505c0,0,1.696-1.696,1.699-1.698c7.915-7.912,7.911-21.128,0.001-29.04
			c-7.928-7.929-21.118-7.923-29.041,0l-1.699,1.699v-9.504c0-11.323-9.211-20.534-20.534-20.534s-20.534,9.211-20.534,20.534
			v32.364c-2.961-7.706-10.44-13.188-19.176-13.188c-11.322,0-20.534,9.211-20.534,20.534v50.572l-48.97,48.97v-69.253
			c0,0,35.727-35.727,35.76-35.76c7.925-7.925,7.908-21.133,0-29.04c-5.947-5.947-15.183-7.673-22.866-4.254
			c0,0,22.827-22.826,22.866-22.865c7.914-7.914,7.895-21.144,0-29.04c-7.924-7.924-21.119-7.92-29.04,0l-6.721,6.721v-2.402
			C276.534,9.212,267.323,0.001,256,0.001c-11.322,0-20.534,9.211-20.534,20.534v2.402c0,0-6.71-6.71-6.721-6.721
			c-7.914-7.914-21.141-7.897-29.039,0c-8.006,8.006-8.006,21.033,0,29.04c7.538,7.538,14.722,16.001,22.884,22.842
			c-6.107-5.119-18.259-0.348-22.884,4.277c-7.926,7.925-7.925,21.116,0,29.039l35.76,35.761v69.253l-48.97-48.97v-50.572
			c0-11.323-9.211-20.534-20.534-20.534c-8.736,0-16.214,5.483-19.176,13.188V67.176c0-11.323-9.211-20.534-20.534-20.534
			c-11.322,0-20.534,9.211-20.534,20.534v9.504c0,0-1.696-1.697-1.698-1.699c-7.924-7.926-21.12-7.92-29.04,0
			c-8.006,8.006-8.006,21.033,0,29.04l1.699,1.698h-9.505c-11.322,0-20.534,9.211-20.534,20.534
			c0,11.322,9.211,20.534,20.534,20.534h32.365c-7.706,2.961-13.188,10.44-13.188,19.176c0,11.322,9.211,20.534,20.534,20.534
			h50.573l48.97,48.97h-69.254c0,0-35.675-35.674-35.76-35.759c-7.933-7.933-21.115-7.926-29.04-0.001
			c-6.177,6.177-7.588,15.344-4.233,22.887c0,0-22.854-22.855-22.886-22.886c-7.925-7.925-21.121-7.919-29.04-0.001
			c-8.006,8.006-8.006,21.033,0,29.04l6.721,6.721h-2.401C9.211,235.467,0,244.678,0,256.001c0,11.323,9.211,20.534,20.534,20.534
			h2.402l-6.722,6.722c-8.005,8.006-8.005,21.031-0.001,29.038c7.933,7.935,21.126,7.916,29.041,0.001l22.887-22.887
			c-3.355,7.543-1.944,16.71,4.233,22.887c7.929,7.93,21.115,7.925,29.039,0l35.76-35.761h69.254l-48.97,48.97c0,0-50.43,0-50.573,0
			c-22.127,0-28.036,31.758-7.346,39.71c0,0-32.255,0-32.364,0c-26.406,0-26.552,41.068,0,41.068h9.505l-1.699,1.699
			c-8.005,8.006-8.005,21.032,0,29.038c7.929,7.931,21.114,7.928,29.04,0l1.699-1.698c0,0,0,9.478,0,9.505
			c0,26.437,41.068,26.532,41.068,0v-32.365c2.961,7.706,10.44,13.188,19.176,13.188c11.323,0,20.534-9.211,20.534-20.534v-50.573
			l48.97-48.97v69.254c0,0-35.665,35.665-35.761,35.761c-12.633,12.633-3.305,35.053,14.52,35.053c2.923,0,5.753-0.606,8.346-1.761
			l-22.867,22.867c-8.006,8.007-8.005,21.032,0,29.039c7.928,7.929,21.125,7.915,29.04,0l6.721-6.721v2.401
			c0,11.323,9.211,20.534,20.534,20.534s20.534-9.211,20.534-20.534v-2.401c0,0,6.708,6.709,6.721,6.722
			c7.931,7.932,21.117,7.922,29.04,0c8.006-8.006,8.006-21.033,0-29.039l-22.866-22.866c2.593,1.153,5.422,1.761,8.345,1.761
			c17.922,0.001,27.188-22.386,14.521-35.054l-35.761-35.76v-69.254l48.97,48.97v50.573c0,11.322,9.211,20.534,20.534,20.534
			c8.736,0,16.215-5.483,19.176-13.188c0,0,0,32.274,0,32.365c0,26.261,41.068,26.596,41.068,0v-9.505c0,0,1.694,1.694,1.699,1.699
			c7.934,7.934,21.119,7.92,29.04,0c8.006-8.006,8.006-21.033,0-29.04l-1.699-1.698c0,0,9.471,0,9.505,0
			c26.498,0,26.486-41.068,0-41.068h-32.365c7.706-2.961,13.188-10.44,13.188-19.176c0-11.323-9.211-20.534-20.534-20.534h-50.573
			l-48.97-48.97h69.254l35.76,35.761c3.878,3.878,9.035,6.014,14.519,6.014c14.64,0.001,24.696-15.541,18.754-28.901l22.886,22.887
			c3.878,3.878,9.035,6.014,14.519,6.014c11.19,0,20.536-9.356,20.536-20.534c0-5.485-2.136-10.642-6.015-14.52l-6.721-6.722h2.401
			C502.789,276.536,512,267.325,512,256.002z M470.956,261.534c-3.033,0-5.768,1.827-6.929,4.63
			c-1.161,2.803-0.519,6.028,1.626,8.173c0,0,19.488,19.488,19.524,19.525c2.146,2.146,2.145,5.681,0,7.826
			c-2.142,2.142-5.686,2.139-7.826,0l-37.957-37.958c-1.406-1.407-3.314-2.197-5.303-2.197h-19.294c-3.034,0-5.768,1.827-6.929,4.63
			c-1.161,2.803-0.519,6.028,1.626,8.173l19.525,19.525c2.157,2.157,2.158,5.667,0.001,7.825c-2.149,2.15-5.686,2.142-7.828,0.001
			l-37.957-37.958c-1.406-1.407-3.314-2.197-5.303-2.197h-90.467c-3.034,0-5.768,1.827-6.929,4.63
			c-1.161,2.803-0.519,6.028,1.626,8.173l63.97,63.97c1.406,1.407,3.314,2.197,5.303,2.197h53.679c3.052,0,5.534,2.482,5.534,5.534
			c0,3.051-2.482,5.534-5.534,5.534h-27.611c-3.034,0-5.768,1.828-6.929,4.63s-0.519,6.028,1.626,8.173l13.642,13.642
			c1.406,1.407,3.314,2.197,5.303,2.197h53.68c3.051,0,5.534,2.482,5.534,5.534s-2.482,5.534-5.534,5.534h-27.612
			c-3.034,0-5.768,1.827-6.929,4.63c-1.161,2.803-0.519,6.028,1.626,8.173l14.502,14.501c2.157,2.158,2.158,5.668,0.001,7.825
			c-2.15,2.151-5.686,2.143-7.828,0.001l-14.502-14.502c-2.145-2.145-5.372-2.786-8.173-1.626c-2.803,1.161-4.63,3.896-4.63,6.93
			v27.611c0,3.052-2.482,5.534-5.534,5.534s-5.534-2.482-5.534-5.534v-53.68c0-1.989-0.79-3.896-2.197-5.303l-13.642-13.643
			c-2.145-2.145-5.371-2.786-8.173-1.625c-2.803,1.161-4.63,3.896-4.63,6.929v27.611c0,3.051-2.482,5.534-5.534,5.534
			c-3.051,0-5.534-2.482-5.534-5.534v-53.68c0-1.989-0.79-3.896-2.197-5.304l-63.97-63.969c-2.146-2.145-5.371-2.786-8.173-1.625
			c-2.803,1.161-4.63,3.896-4.63,6.929v90.467c0,1.989,0.79,3.896,2.197,5.303l37.958,37.958c2.157,2.157,2.157,5.668,0,7.826
			c-2.14,2.141-5.692,2.134-7.827,0l-19.524-19.524c-2.145-2.146-5.371-2.787-8.173-1.626c-2.803,1.161-4.63,3.896-4.63,6.929
			v19.294c0,1.989,0.79,3.896,2.197,5.303l37.958,37.958c1.045,1.045,1.621,2.435,1.621,3.913c0,1.478-0.576,2.867-1.621,3.913
			c-1.045,1.045-2.435,1.621-3.913,1.621c-1.479,0-2.869-0.575-3.914-1.62l-19.524-19.525c-2.145-2.145-5.371-2.786-8.173-1.626
			c-2.803,1.161-4.63,3.896-4.63,6.929v20.508c0,3.052-2.482,5.534-5.534,5.534c-3.051,0-5.534-2.482-5.534-5.534v-20.508
			c0-3.033-1.827-5.768-4.63-6.929c-0.928-0.385-1.902-0.571-2.869-0.571c-1.952,0-3.87,0.762-5.305,2.197l-19.525,19.524
			c-1.045,1.045-2.435,1.621-3.913,1.621c-1.478,0-2.868-0.576-3.913-1.621c-2.158-2.158-2.157-5.668,0-7.826l37.957-37.958
			c1.407-1.407,2.197-3.314,2.197-5.303v-19.293c0-3.034-1.827-5.768-4.63-6.929c-2.801-1.161-6.028-0.52-8.173,1.626
			c0,0-19.508,19.508-19.524,19.524c-2.136,2.136-5.689,2.138-7.826,0c-2.158-2.157-2.157-5.669,0-7.826l37.957-37.958
			c1.407-1.407,2.197-3.314,2.197-5.303v-90.467c0-3.033-1.827-5.768-4.63-6.929c-2.801-1.16-6.028-0.52-8.173,1.625l-63.97,63.969
			c-1.407,1.407-2.197,3.314-2.197,5.304v53.68c0,3.051-2.482,5.534-5.534,5.534c-3.051,0-5.534-2.482-5.534-5.534v-27.611
			c0-3.034-1.827-5.769-4.63-6.929c-2.801-1.161-6.028-0.52-8.173,1.625l-13.642,13.643c-1.407,1.406-2.197,3.313-2.197,5.303v53.68
			c0,3.052-2.482,5.534-5.534,5.534c-3.051,0-5.534-2.482-5.534-5.534v-27.611c0-3.034-1.827-5.769-4.63-6.93
			c-2.803-1.16-6.028-0.519-8.173,1.626c0,0-14.46,14.46-14.502,14.502c-2.147,2.147-5.68,2.147-7.826,0.001
			c-2.158-2.158-2.158-5.669,0-7.827l14.502-14.501c2.145-2.145,2.787-5.371,1.626-8.173c-1.161-2.803-3.896-4.63-6.929-4.63H67.174
			c-3.051,0-5.534-2.482-5.534-5.534s2.482-5.534,5.534-5.534h53.68c1.989,0,3.897-0.79,5.303-2.197l13.642-13.642
			c2.145-2.145,2.787-5.371,1.626-8.173c-1.161-2.802-3.896-4.63-6.929-4.63h-27.612c-3.051,0-5.534-2.482-5.534-5.534
			s2.482-5.534,5.534-5.534h53.68c1.989,0,3.897-0.79,5.303-2.197l63.97-63.97c2.145-2.145,2.787-5.371,1.626-8.173
			c-1.161-2.803-3.896-4.63-6.929-4.63h-90.467c-1.989,0-3.897,0.79-5.303,2.197c0,0-37.919,37.919-37.957,37.957
			c-2.139,2.139-5.687,2.138-7.826,0c-2.158-2.158-2.157-5.668,0-7.826l19.524-19.525c2.145-2.145,2.787-5.371,1.626-8.173
			c-1.161-2.803-3.896-4.63-6.929-4.63H77.908c-1.989,0-3.897,0.79-5.303,2.197c0,0-37.919,37.92-37.957,37.957
			c-2.138,2.138-5.687,2.138-7.827,0c-2.157-2.155-2.157-5.666,0-7.824l19.524-19.525c2.145-2.145,2.787-5.371,1.626-8.173
			c-1.161-2.803-3.896-4.63-6.929-4.63H20.534c-3.052,0-5.534-2.482-5.534-5.534c0-3.051,2.482-5.534,5.534-5.534h20.508
			c3.034,0,5.768-1.828,6.929-4.63s0.519-6.028-1.626-8.173c0,0-19.486-19.486-19.524-19.524c-2.138-2.138-2.134-5.692,0-7.826
			c2.139-2.14,5.691-2.137,7.827-0.001l37.957,37.957c1.406,1.407,3.314,2.197,5.303,2.197h19.294c3.034,0,5.768-1.828,6.929-4.63
			c1.161-2.802,0.519-6.028-1.626-8.173c0,0-19.491-19.491-19.524-19.524c-2.139-2.139-2.138-5.687,0-7.826
			c2.14-2.141,5.69-2.137,7.827,0l37.957,37.957c1.407,1.407,3.314,2.197,5.303,2.197h90.467c3.034,0,5.768-1.828,6.929-4.63
			c1.161-2.802,0.519-6.028-1.626-8.173l-63.97-63.97c-1.406-1.406-3.314-2.197-5.303-2.197h-53.68
			c-3.051,0-5.534-2.482-5.534-5.534s2.482-5.534,5.534-5.534h27.612c3.034,0,5.768-1.827,6.929-4.63
			c1.161-2.803,0.519-6.028-1.626-8.173l-13.642-13.642c-1.406-1.407-3.314-2.197-5.303-2.197h-53.68
			c-3.051,0-5.534-2.482-5.534-5.534s2.482-5.534,5.534-5.534h27.611c3.034,0,5.768-1.827,6.929-4.63
			c1.161-2.803,0.519-6.028-1.626-8.173L85.587,93.415c-2.158-2.158-2.158-5.668,0-7.826c2.136-2.137,5.695-2.132,7.827,0
			l14.502,14.502c2.145,2.146,5.372,2.787,8.173,1.626c2.803-1.161,4.63-3.896,4.63-6.929V67.176c0-3.052,2.482-5.534,5.534-5.534
			s5.534,2.482,5.534,5.534v53.679c0,1.989,0.79,3.897,2.197,5.303l13.642,13.642c2.146,2.146,5.373,2.788,8.173,1.625
			c2.803-1.16,4.63-3.896,4.63-6.929v-27.611c0-3.052,2.482-5.534,5.534-5.534s5.534,2.482,5.534,5.534v53.679
			c0,1.989,0.79,3.897,2.197,5.303l63.97,63.97c2.145,2.146,5.372,2.787,8.173,1.626c2.803-1.161,4.63-3.896,4.63-6.929v-90.467
			c0-1.989-0.79-3.897-2.197-5.303c0,0-37.85-37.85-37.957-37.957c-2.147-2.147-2.142-5.681-0.002-7.825
			c2.111-2.114,5.723-2.105,7.828-0.002l19.524,19.524c2.146,2.146,5.373,2.787,8.173,1.626c2.803-1.161,4.63-3.896,4.63-6.93
			V77.909c0-1.989-0.79-3.897-2.197-5.304l-37.957-37.957c-2.158-2.158-2.158-5.668,0-7.826c2.145-2.145,5.678-2.149,7.826,0
			l19.524,19.524c2.146,2.146,5.373,2.787,8.173,1.626c2.803-1.161,4.63-3.896,4.63-6.929V20.535c0-3.052,2.482-5.534,5.534-5.534
			s5.534,2.482,5.534,5.534v20.509c0,3.033,1.827,5.768,4.63,6.929c2.802,1.161,6.029,0.52,8.173-1.625
			c0,0,19.452-19.452,19.525-19.525c2.019-2.019,5.66-2.165,7.826,0c2.15,2.149,2.146,5.681,0.001,7.827L263.73,72.607
			c-1.407,1.407-2.197,3.314-2.197,5.304v19.293c0,3.034,1.827,5.768,4.63,6.929c2.802,1.161,6.029,0.52,8.173-1.626
			c0,0,19.453-19.452,19.525-19.524c2.147-2.147,5.686-2.14,7.826,0c2.149,2.149,2.142,5.685,0.001,7.826l-37.958,37.957
			c-1.407,1.407-2.197,3.314-2.197,5.304v90.466c0,3.034,1.827,5.768,4.63,6.929c2.802,1.161,6.029,0.52,8.173-1.626l63.97-63.97
			c1.407-1.406,2.197-3.314,2.197-5.303v-53.679c0-3.052,2.482-5.534,5.534-5.534s5.534,2.482,5.534,5.534v27.611
			c0,3.033,1.827,5.769,4.63,6.929c2.802,1.162,6.029,0.52,8.173-1.625l13.642-13.642c1.407-1.406,2.197-3.314,2.197-5.303V67.176
			c0-3.052,2.482-5.534,5.534-5.534c3.051,0,5.534,2.482,5.534,5.534v27.611c0,3.033,1.827,5.768,4.63,6.929
			c2.803,1.161,6.029,0.52,8.173-1.626c0,0,14.465-14.464,14.502-14.502c2.136-2.135,5.694-2.131,7.826,0
			c2.144,2.144,2.142,5.686,0,7.826l-14.502,14.502c-2.145,2.146-2.787,5.371-1.626,8.174c1.161,2.803,3.896,4.63,6.929,4.63h27.612
			c3.051,0,5.534,2.482,5.534,5.534c0,3.051-2.482,5.534-5.534,5.534h-53.68c-1.989,0-3.897,0.79-5.303,2.197L372.2,147.626
			c-2.145,2.145-2.787,5.371-1.626,8.173c1.161,2.803,3.896,4.63,6.929,4.63h27.611c3.052,0,5.534,2.482,5.534,5.534
			c0,3.051-2.482,5.534-5.534,5.534h-53.679c-1.989,0-3.897,0.791-5.303,2.197l-63.97,63.97c-2.145,2.145-2.787,5.371-1.626,8.173
			s3.896,4.63,6.929,4.63h90.467c1.989,0,3.897-0.79,5.303-2.197c0,0,37.944-37.943,37.958-37.957c2.05-2.05,5.625-2.2,7.826,0
			c2.052,2.051,2.198,5.629,0,7.826l-19.524,19.524c-2.145,2.145-2.787,5.371-1.626,8.173s3.896,4.63,6.929,4.63h19.293
			c1.989,0,3.896-0.79,5.303-2.197c0,0,37.926-37.926,37.957-37.957c2.142-2.142,5.687-2.138,7.826,0
			c2.053,2.052,2.19,5.637,0,7.826l-19.524,19.524c-2.145,2.145-2.787,5.371-1.626,8.173c1.161,2.802,3.896,4.63,6.929,4.63h20.508
			c3.052,0,5.534,2.482,5.534,5.534s-2.482,5.534-5.534,5.534H470.956z"/>
	</g>
</g>
<g>
</g>
<g>
</g>
<g>
</g>
<g>
</g>
<g>
</g>
<g>
</g>
<g>
</g>
<g>
</g>
<g>
</g>
<g>
</g>
<g>
</g>
<g>
</g>
<g>
</g>
<g>
</g>
<g>
</g>
</svg>
