<?xml version="1.0" encoding="iso-8859-1"?>
<!-- Generator: Adobe Illustrator 19.0.0, SVG Export Plug-In . SVG Version: 6.00 Build 0)  -->
<svg version="1.1" id="Capa_1" xmlns="http://www.w3.org/2000/svg" xmlns:xlink="http://www.w3.org/1999/xlink" x="0px" y="0px"
	 viewBox="0 0 512 512" style="enable-background:new 0 0 512 512;" xml:space="preserve">
<path style="fill:#F0ECED;" d="M504,0H8C3.582,0,0,3.582,0,8v496c0,4.418,3.582,8,8,8h496c4.418,0,8-3.582,8-8V8
	C512,3.582,508.418,0,504,0z"/>
<path style="fill:#E1D8DC;" d="M32,504V8c0-4.418,3.582-8,8-8H8C3.582,0,0,3.582,0,8v496c0,4.418,3.582,8,8,8h32
	C35.582,512,32,508.418,32,504z"/>
<g>
	<path style="fill:#A58B95;" d="M208,104h-16.518c-3.623-28.902-26.58-51.859-55.482-55.482V32c0-4.418-3.582-8-8-8s-8,3.582-8,8
		v16.518C91.098,52.141,68.141,75.098,64.518,104H48c-4.418,0-8,3.582-8,8s3.582,8,8,8h16.518
		c3.623,28.902,26.58,51.859,55.482,55.482V192c0,4.418,3.582,8,8,8s8-3.582,8-8v-16.518c28.902-3.623,51.859-26.58,55.482-55.482
		H208c4.418,0,8-3.582,8-8S212.418,104,208,104z M136,159.321V152c0-4.418-3.582-8-8-8s-8,3.582-8,8v7.321
		C99.932,155.938,84.062,140.067,80.679,120H88c4.418,0,8-3.582,8-8s-3.582-8-8-8h-7.321C84.062,83.933,99.932,68.062,120,64.679V72
		c0,4.418,3.582,8,8,8s8-3.582,8-8v-7.321c20.068,3.382,35.938,19.253,39.321,39.321H168c-4.418,0-8,3.582-8,8s3.582,8,8,8h7.321
		C171.938,140.067,156.068,155.938,136,159.321z"/>
	<path style="fill:#A58B95;" d="M464,104h-16.518c-3.623-28.902-26.58-51.859-55.482-55.482V32c0-4.418-3.582-8-8-8s-8,3.582-8,8
		v16.518c-28.902,3.623-51.859,26.58-55.482,55.482H304c-4.418,0-8,3.582-8,8s3.582,8,8,8h16.518
		c3.623,28.902,26.58,51.859,55.482,55.482V192c0,4.418,3.582,8,8,8s8-3.582,8-8v-16.518c28.902-3.623,51.859-26.58,55.482-55.482
		H464c4.418,0,8-3.582,8-8S468.418,104,464,104z M392,159.321V152c0-4.418-3.582-8-8-8s-8,3.582-8,8v7.321
		c-20.068-3.382-35.938-19.253-39.321-39.321H344c4.418,0,8-3.582,8-8s-3.582-8-8-8h-7.321
		c3.382-20.067,19.253-35.938,39.321-39.321V72c0,4.418,3.582,8,8,8s8-3.582,8-8v-7.321c20.068,3.382,35.938,19.253,39.321,39.321
		H424c-4.418,0-8,3.582-8,8s3.582,8,8,8h7.321C427.938,140.067,412.068,155.938,392,159.321z"/>
	<path style="fill:#A58B95;" d="M464,296h-16.518c-3.623-28.902-26.58-51.859-55.482-55.482V224c0-4.418-3.582-8-8-8s-8,3.582-8,8
		v16.518c-28.902,3.623-51.859,26.58-55.482,55.482H304c-4.418,0-8,3.582-8,8s3.582,8,8,8h16.518
		c3.623,28.902,26.58,51.859,55.482,55.482V384c0,4.418,3.582,8,8,8s8-3.582,8-8v-16.518c28.902-3.623,51.859-26.58,55.482-55.482
		H464c4.418,0,8-3.582,8-8S468.418,296,464,296z M392,351.321V344c0-4.418-3.582-8-8-8s-8,3.582-8,8v7.321
		c-20.068-3.382-35.938-19.253-39.321-39.321H344c4.418,0,8-3.582,8-8s-3.582-8-8-8h-7.321
		c3.382-20.067,19.253-35.938,39.321-39.321V264c0,4.418,3.582,8,8,8s8-3.582,8-8v-7.321c20.068,3.382,35.938,19.253,39.321,39.321
		H424c-4.418,0-8,3.582-8,8s3.582,8,8,8h7.321C427.938,332.067,412.068,347.938,392,351.321z"/>
	<path style="fill:#A58B95;" d="M208,296h-16.518c-3.623-28.902-26.58-51.859-55.482-55.482V224c0-4.418-3.582-8-8-8s-8,3.582-8,8
		v16.518c-28.902,3.623-51.859,26.58-55.482,55.482H48c-4.418,0-8,3.582-8,8s3.582,8,8,8h16.518
		c3.623,28.902,26.58,51.859,55.482,55.482V384c0,4.418,3.582,8,8,8s8-3.582,8-8v-16.518c28.902-3.623,51.859-26.58,55.482-55.482
		H208c4.418,0,8-3.582,8-8S212.418,296,208,296z M136,351.321V344c0-4.418-3.582-8-8-8s-8,3.582-8,8v7.321
		C99.932,347.938,84.062,332.067,80.679,312H88c4.418,0,8-3.582,8-8s-3.582-8-8-8h-7.321c3.382-20.067,19.253-35.938,39.321-39.321
		V264c0,4.418,3.582,8,8,8s8-3.582,8-8v-7.321c20.068,3.382,35.938,19.253,39.321,39.321H168c-4.418,0-8,3.582-8,8s3.582,8,8,8
		h7.321C171.938,332.067,156.068,347.938,136,351.321z"/>
</g>
<path style="fill:#66C3AB;" d="M512,416H0v88c0,4.418,3.582,8,8,8h496c4.418,0,8-3.582,8-8V416z"/>
<path style="fill:#33AF8F;" d="M32,504v-88H0v88c0,4.418,3.582,8,8,8h32C35.582,512,32,508.418,32,504z"/>
<path style="fill:#E36D45;" d="M296,448h-80c-4.418,0-8,3.582-8,8v24c0,4.418,3.582,8,8,8h80c4.418,0,8-3.582,8-8v-24
	C304,451.582,300.418,448,296,448z"/>
<path style="fill:#33AF8F;" d="M296,496h-80c-8.822,0-16-7.178-16-16v-24c0-8.822,7.178-16,16-16h80c8.822,0,16,7.178,16,16v24
	C312,488.822,304.822,496,296,496z M216,456v24h80v-24H216z"/>
<path style="fill:#E1D8DC;" d="M352,440c-13.233,0-24,10.766-24,24s10.767,24,24,24s24-10.766,24-24S365.233,440,352,440z"/>
<path style="fill:#F0ECED;" d="M352,448c-8.822,0-16,7.177-16,16s7.178,16,16,16s16-7.177,16-16S360.822,448,352,448z"/>
<path style="fill:#E1D8DC;" d="M416,440c-13.233,0-24,10.766-24,24s10.767,24,24,24s24-10.766,24-24S429.233,440,416,440z"/>
<path style="fill:#F0ECED;" d="M416,448c-8.822,0-16,7.177-16,16s7.178,16,16,16s16-7.177,16-16S424.822,448,416,448z"/>
<path style="fill:#E1D8DC;" d="M96,440c-13.233,0-24,10.766-24,24s10.767,24,24,24s24-10.766,24-24S109.233,440,96,440z"/>
<path style="fill:#F0ECED;" d="M96,448c-8.822,0-16,7.177-16,16s7.178,16,16,16s16-7.177,16-16S104.822,448,96,448z"/>
<path style="fill:#E1D8DC;" d="M160,440c-13.233,0-24,10.766-24,24s10.767,24,24,24s24-10.766,24-24S173.233,440,160,440z"/>
<path style="fill:#F0ECED;" d="M160,448c-8.822,0-16,7.177-16,16s7.178,16,16,16s16-7.177,16-16S168.822,448,160,448z"/>
<g>
</g>
<g>
</g>
<g>
</g>
<g>
</g>
<g>
</g>
<g>
</g>
<g>
</g>
<g>
</g>
<g>
</g>
<g>
</g>
<g>
</g>
<g>
</g>
<g>
</g>
<g>
</g>
<g>
</g>
</svg>
