<svg id="Capa_1" enable-background="new 0 0 512 512" height="512" viewBox="0 0 512 512" width="512" xmlns="http://www.w3.org/2000/svg"><path d="m7.5 7.5h497v497h-497z" fill="#cbf4ff"/><g fill="#a2e1f8"><circle cx="69.5" cy="69.5" r="27"/><circle cx="442.5" cy="69.5" r="27"/><circle cx="69.5" cy="443.5" r="27"/><circle cx="442.5" cy="443.5" r="27"/></g><path d="m419.433 241h30.121c-7.28-95.252-83.302-171.274-178.554-178.553v30.121c78.552 7.151 141.281 69.88 148.433 148.432z" fill="#67c6e4"/><path d="m241 92.567v-30.12c-95.252 7.279-171.274 83.301-178.553 178.553h30.121c7.151-78.552 69.88-141.281 148.432-148.433z" fill="#67c6e4"/><path d="m271 419.433v30.121c95.252-7.279 171.274-83.301 178.553-178.553h-30.121c-7.151 78.551-69.88 141.28-148.432 148.432z" fill="#67c6e4"/><path d="m92.567 271h-30.12c7.279 95.252 83.301 171.274 178.553 178.553v-30.121c-78.552-7.151-141.281-69.88-148.433-148.432z" fill="#67c6e4"/><path d="m241 122.719v-30.152c-78.552 7.152-141.281 69.881-148.433 148.433h30.151c6.932-61.996 56.286-111.35 118.282-118.281z" fill="#a2e1f8"/><path d="m122.719 271h-30.152c7.152 78.552 69.88 141.281 148.433 148.433v-30.151c-61.996-6.932-111.35-56.286-118.281-118.282z" fill="#a2e1f8"/><path d="m271 92.567v30.151c61.996 6.932 111.35 56.286 118.281 118.282h30.151c-7.151-78.552-69.88-141.281-148.432-148.433z" fill="#a2e1f8"/><path d="m271 389.281v30.151c78.552-7.152 141.281-69.88 148.433-148.433h-30.151c-6.932 61.997-56.286 111.351-118.282 118.282z" fill="#a2e1f8"/><path d="m271 359.04v30.241c61.996-6.931 111.35-56.285 118.281-118.281h-30.241c-6.584 45.433-42.607 81.456-88.04 88.04z" fill="#67c6e4"/><path d="m152.96 271h-30.241c6.931 61.996 56.285 111.35 118.281 118.281v-30.241c-45.433-6.584-81.456-42.607-88.04-88.04z" fill="#67c6e4"/><path d="m241 152.96v-30.241c-61.996 6.931-111.35 56.285-118.281 118.281h30.241c6.584-45.433 42.607-81.456 88.04-88.04z" fill="#67c6e4"/><path d="m359.04 241h30.241c-6.931-61.996-56.285-111.35-118.281-118.281v30.241c45.433 6.584 81.456 42.607 88.04 88.04z" fill="#67c6e4"/><path d="m183.402 271h-30.442c6.584 45.433 42.607 81.456 88.04 88.04v-30.442c-28.86-5.955-51.643-28.738-57.598-57.598z" fill="#a2e1f8"/><path d="m271 328.598v30.442c45.433-6.584 81.456-42.607 88.04-88.04h-30.442c-5.955 28.86-28.738 51.643-57.598 57.598z" fill="#a2e1f8"/><path d="m328.598 241h30.442c-6.584-45.433-42.607-81.456-88.04-88.04v30.442c28.86 5.955 51.643 28.738 57.598 57.598z" fill="#a2e1f8"/><path d="m152.96 241h30.442c5.955-28.86 28.738-51.643 57.598-57.598v-30.442c-45.433 6.584-81.456 42.607-88.04 88.04z" fill="#a2e1f8"/><path d="m256 300.125c-24.331 0-44.125-19.794-44.125-44.125s19.794-44.125 44.125-44.125 44.125 19.794 44.125 44.125-19.794 44.125-44.125 44.125z" fill="#67c6e4"/><path d="m504.5 0h-497c-4.143 0-7.5 3.357-7.5 7.5v37.5c0 4.143 3.357 7.5 7.5 7.5s7.5-3.357 7.5-7.5v-30h482v482h-482v-402c0-4.143-3.357-7.5-7.5-7.5s-7.5 3.357-7.5 7.5v409.5c0 4.143 3.357 7.5 7.5 7.5h497c4.143 0 7.5-3.357 7.5-7.5v-497c0-4.143-3.357-7.5-7.5-7.5z"/><path d="m69.5 35c-19.023 0-34.5 15.477-34.5 34.5s15.477 34.5 34.5 34.5 34.5-15.477 34.5-34.5-15.477-34.5-34.5-34.5zm0 15c2.823 0 5.5.616 7.925 1.7l-26.144 24.691c-.815-2.146-1.281-4.463-1.281-6.891 0-10.752 8.748-19.5 19.5-19.5zm0 39c-2.823 0-5.5-.616-7.925-1.7l26.144-24.691c.815 2.146 1.281 4.463 1.281 6.891 0 10.752-8.748 19.5-19.5 19.5z"/><path d="m442.5 35c-19.023 0-34.5 15.477-34.5 34.5s15.477 34.5 34.5 34.5 34.5-15.477 34.5-34.5-15.477-34.5-34.5-34.5zm0 15c2.823 0 5.5.616 7.925 1.7l-26.144 24.691c-.815-2.146-1.281-4.463-1.281-6.891 0-10.752 8.748-19.5 19.5-19.5zm0 39c-2.823 0-5.5-.616-7.925-1.7l26.144-24.691c.815 2.146 1.281 4.463 1.281 6.891 0 10.752-8.748 19.5-19.5 19.5z"/><path d="m69.5 478c19.023 0 34.5-15.477 34.5-34.5s-15.477-34.5-34.5-34.5-34.5 15.477-34.5 34.5 15.477 34.5 34.5 34.5zm0-15c-2.823 0-5.5-.616-7.925-1.7l26.144-24.691c.815 2.146 1.281 4.463 1.281 6.891 0 10.752-8.748 19.5-19.5 19.5zm0-39c2.823 0 5.5.616 7.925 1.7l-26.144 24.691c-.815-2.146-1.281-4.463-1.281-6.891 0-10.752 8.748-19.5 19.5-19.5z"/><path d="m442.5 478c19.023 0 34.5-15.477 34.5-34.5s-15.477-34.5-34.5-34.5-34.5 15.477-34.5 34.5 15.477 34.5 34.5 34.5zm0-15c-2.823 0-5.5-.616-7.925-1.7l26.144-24.691c.815 2.146 1.281 4.463 1.281 6.891 0 10.752-8.748 19.5-19.5 19.5zm0-39c2.823 0 5.5.616 7.925 1.7l-26.144 24.691c-.815-2.146-1.281-4.463-1.281-6.891 0-10.752 8.748-19.5 19.5-19.5z"/><path d="m271.571 54.969c-4.296-.323-8.071 3.167-8.071 7.479v120.955c0 3.558 2.5 6.626 5.984 7.346 26.068 5.378 46.389 25.698 51.768 51.768.72 3.484 3.788 5.984 7.346 5.984h120.955c4.308 0 7.807-3.775 7.479-8.071-3.657-47.854-24.419-92.956-58.462-126.998-34.044-34.044-79.145-54.806-126.999-58.463zm9.421 46.421c66.629 10.799 120.303 65.296 129.997 132.11h-15.164c-9.574-59.498-57.825-107.751-117.325-117.325v-15.164c.832.119 1.662.246 2.492.379zm-2.492 76.137v-15.484c6.634 1.588 13.1 3.873 19.248 6.832 3.729 1.796 8.214.228 10.01-3.506 1.797-3.732.227-8.214-3.506-10.01-8.178-3.936-16.863-6.869-25.752-8.697v-15.266c51.345 9.322 92.782 50.759 102.104 102.104h-15.262c-4.313-21.097-14.876-40.643-30.009-55.948-2.912-2.945-7.661-2.972-10.606-.06-2.945 2.913-2.972 7.661-.06 10.606 12.372 12.509 21.219 28.281 25.298 45.401h-15.492c-7.743-27.074-28.899-48.23-55.973-55.972zm147.641 55.973c-10.036-75.881-71.76-137.605-147.641-147.641v-15.138c41.265 4.978 79.874 23.727 109.463 53.316s48.338 68.198 53.316 109.463z"/><path d="m240.429 54.969c-47.854 3.657-92.956 24.419-126.998 58.462-34.043 34.042-54.805 79.145-58.462 126.998-.328 4.296 3.17 8.071 7.479 8.071h120.955c3.558 0 6.626-2.5 7.346-5.984 5.378-26.069 25.698-46.39 51.768-51.768 3.484-.72 5.984-3.788 5.984-7.346v-120.955c-.001-4.313-3.776-7.799-8.072-7.478zm-10.185 92.431c-41.589 9.905-74.937 44.217-83.58 86.1h-15.268c9.322-51.345 50.759-92.782 102.104-102.104v15.268c-1.085.245-2.17.491-3.256.736zm-106.207-23.363c29.589-29.59 68.198-48.339 109.463-53.316v15.137c-11.189 1.474-22.249 4.062-32.928 7.715-9.401 3.216-3.859 17.179 4.855 14.191 9.115-3.119 18.539-5.37 28.072-6.752v15.163c-59.497 9.574-107.75 57.825-117.324 117.325h-15.162c6.537-44.781 32.835-85.298 71.019-109.649 3.493-2.227 4.519-6.863 2.291-10.355-2.227-3.492-6.865-4.518-10.355-2.291-42.432 27.059-71.5 72.414-78.107 122.296h-15.14c4.977-41.266 23.726-79.875 53.316-109.464zm53.49 109.463h-15.483c8.386-34.873 36.582-63.069 71.455-71.455v15.483c-27.074 7.741-48.23 28.897-55.972 55.972z"/><path d="m455.055 265.902c-1.42-1.531-3.413-2.402-5.502-2.402h-120.955c-3.558 0-6.626 2.5-7.346 5.984-5.379 26.069-25.699 46.39-51.768 51.768-3.484.72-5.984 3.788-5.984 7.346v120.955c0 4.227 3.88 7.801 8.071 7.479 47.854-3.657 92.955-24.419 126.998-58.462 34.043-34.042 54.805-79.145 58.462-126.998.159-2.083-.557-4.137-1.976-5.67zm-75.388 17.27c-10.955 49.295-51.447 88.405-101.167 97.432v-15.268c43.022-8.878 77.958-43.814 86.836-86.836h15.268c-.283 1.562-.594 3.122-.937 4.672zm-45.194-4.672h15.482c-8.381 34.873-36.586 63.07-71.455 71.455v-15.483c27.074-7.741 48.23-28.897 55.973-55.972zm53.49 109.463c-29.589 29.59-68.198 48.339-109.463 53.316v-15.136c15.251-2.007 30.278-6.105 44.435-12.123 3.812-1.621 5.588-6.024 3.968-9.837-1.622-3.813-6.027-5.589-9.837-3.968-12.319 5.238-25.319 8.858-38.565 10.78v-15.17c59.497-9.574 107.75-57.825 117.324-117.325h15.173c-5.941 40.811-28.459 78.395-61.485 103.056-3.319 2.478-4 7.178-1.521 10.496 2.478 3.318 7.176 3.998 10.496 1.522 36.777-27.455 61.628-69.549 67.654-115.074h15.138c-4.979 41.265-23.728 79.874-53.317 109.463z"/><path d="m190.748 269.484c-.72-3.484-3.788-5.984-7.346-5.984h-120.955c-4.308 0-7.807 3.775-7.479 8.071 3.657 47.854 24.419 92.956 58.462 126.998 34.042 34.043 79.145 54.805 126.998 58.462 4.193.323 8.071-3.257 8.071-7.479v-120.954c0-3.558-2.5-6.626-5.984-7.346-26.069-5.378-46.389-25.698-51.767-51.768zm41.672 141.346c-67.235-10.25-121.643-65.016-131.409-132.33h15.162c3.74 23.29 13.442 45.545 27.902 64.177 2.542 3.273 7.252 3.866 10.523 1.326 3.272-2.539 3.866-7.251 1.326-10.523-12.449-16.041-20.89-35.011-24.533-54.979h15.272c8.878 43.022 43.814 77.958 86.836 86.836v15.26c-16.851-3.056-33.081-9.562-47.351-19.04-3.449-2.291-8.104-1.353-10.397 2.099-2.291 3.451-1.352 8.105 2.099 10.397 16.713 11.095 35.845 18.573 55.649 21.772v15.164c-.359-.052-.719-.104-1.079-.159zm1.08-76.357v15.483c-34.873-8.386-63.069-36.582-71.455-71.455h15.483c7.741 27.074 28.897 48.23 55.972 55.972zm0 106.806c-41.265-4.978-79.874-23.727-109.463-53.316-29.59-29.589-48.339-68.198-53.316-109.463h15.139c10.035 75.881 71.759 137.605 147.641 147.641v15.138z"/><path d="m204.375 256c0 28.466 23.159 51.625 51.625 51.625s51.625-23.159 51.625-51.625-23.159-51.625-51.625-51.625-51.625 23.159-51.625 51.625zm88.25 0c0 20.195-16.43 36.625-36.625 36.625s-36.625-16.43-36.625-36.625 16.43-36.625 36.625-36.625 36.625 16.43 36.625 36.625z"/></svg>